<svg width="450" height="338" viewBox="0 0 450 338" fill="none" xmlns="http://www.w3.org/2000/svg">
<path d="M221.117 102.314C214.264 109.393 207.868 117.158 207.183 119.214C206.269 121.497 204.898 123.324 203.756 123.324C202.614 123.324 200.33 126.293 198.731 130.176C197.132 133.83 195.076 137.027 194.162 137.027C193.249 137.027 191.193 141.366 189.594 146.619C187.995 152.1 185.025 158.951 183.198 162.149L179.772 167.858L184.569 163.519C187.31 161.007 189.594 158.038 189.594 156.668C189.822 155.297 193.477 151.415 198.274 148.218C202.843 145.02 208.553 138.854 210.838 134.515L215.178 126.75L207.868 134.743L200.787 142.737L208.096 127.892C215.178 113.504 230.254 92.4933 232.31 94.5487C232.995 95.0055 231.624 98.6596 229.797 102.542C225 111.677 224.772 118.072 229.569 114.189C236.65 108.48 222.944 135.428 214.721 143.65C200.787 157.81 199.416 161.464 211.98 150.958C224.315 140.681 229.569 140.453 227.056 150.273C226.142 153.014 223.858 155.297 221.574 155.297C219.518 155.297 215.863 157.353 213.579 159.865C211.294 162.606 208.096 164.204 206.497 163.519C205.127 163.062 200.33 166.031 196.218 170.37L188.452 178.364L195.076 177.222C198.731 176.537 202.843 174.938 204.213 173.568C205.355 172.426 207.64 171.284 208.782 171.284C211.98 171.284 196.904 184.073 188.452 188.641C184.797 190.696 179.772 194.35 177.487 196.634C175.203 199.146 170.178 200.973 166.066 200.973C161.954 200.973 156.244 202.572 153.503 204.627C145.964 209.88 147.563 205.541 156.015 198.233C162.868 192.066 162.64 192.066 150.761 199.374C119.695 218.33 119.01 218.101 139.797 198.918C150.533 188.641 162.411 175.395 165.838 169.457C169.264 163.519 175.66 154.384 180 149.131C184.112 143.878 187.081 138.626 186.396 137.256C185.482 136.114 181.599 134.287 177.487 133.601C173.604 132.688 168.807 130.861 167.437 129.719C162.64 125.837 157.843 129.491 156.244 138.169C155.558 142.508 153.959 146.847 152.817 147.533C151.675 148.218 150.761 150.73 150.761 153.014C150.761 155.526 148.249 161.235 145.051 165.803C141.853 170.37 139.34 175.395 139.34 176.765C139.34 178.135 137.284 181.789 135 184.758C127.919 194.122 127.69 186.128 134.772 174.938C142.538 162.834 143.223 160.322 137.741 164.661C135.457 166.488 137.513 162.606 142.31 156.211C153.503 140.681 153.046 137.941 141.624 150.73C136.599 156.211 132.487 161.464 132.487 162.377C132.487 165.118 120.152 177.45 116.041 178.82C113.756 179.734 111.929 181.561 111.929 183.16C111.7 191.838 90.6852 207.824 79.4924 207.824C75.3807 207.824 68.5279 209.88 64.4162 212.392C60.3045 214.904 55.5076 216.96 53.9086 216.96C52.0812 216.96 48.4264 219.015 45.4568 221.527C40.8883 225.181 40.6599 225.866 44.0863 226.095C49.5685 226.095 48.8832 229.292 42.7157 232.718C24.8984 242.31 24.8984 242.538 45.6852 241.168C63.5025 240.026 64.6446 240.254 60.533 243.451L55.9644 247.106L60.533 245.964C63.0457 245.278 68.7563 244.137 73.0964 243.223L81.0913 241.853L75.3807 246.649C70.8122 250.76 70.5837 251.445 74.2385 250.074C76.7512 248.933 82.005 247.791 85.6599 247.106C89.5431 246.42 98.2233 242.081 105.076 237.285C111.929 232.489 126.091 225.41 136.142 221.756C146.421 218.101 159.67 212.849 165.609 210.337C171.548 207.596 176.802 205.541 177.487 205.541C180.685 205.541 174.289 210.565 163.325 216.731C151.218 223.583 146.65 228.15 154.873 225.181C157.157 224.268 156.472 225.638 153.046 228.378C149.848 230.891 143.68 234.088 139.34 235.23C135 236.6 126.777 241.853 121.066 247.106C111.015 256.241 111.472 256.241 146.878 237.97C166.523 227.922 182.284 220.614 181.371 221.756C179.543 224.724 181.371 224.268 190.279 220.157C197.817 216.503 198.274 216.503 214.949 225.866C230.482 234.316 231.167 234.545 223.858 228.378C219.518 224.724 216.548 221.527 217.462 221.527C218.147 221.527 226.371 225.181 235.736 229.52C245.102 234.088 254.924 237.97 257.437 238.656C260.178 239.112 264.518 240.483 267.03 241.853C269.543 243.223 272.284 244.365 272.97 244.365C276.168 244.365 270.914 233.631 264.746 227.922C253.096 216.96 257.665 216.731 273.198 227.465C281.421 233.403 288.503 237.742 288.959 237.285C289.416 236.828 287.589 232.261 285.076 227.237C282.563 222.212 280.508 214.676 280.736 210.793C280.964 206.683 278.452 198.004 275.025 191.381C269.086 179.962 268.629 179.506 267.03 184.987C265.66 189.783 265.431 190.011 264.746 186.128C264.518 183.616 264.518 175.623 264.975 168.315C265.203 158.266 264.518 153.927 261.32 150.501C259.264 148.218 258.122 146.162 259.036 146.162C259.949 146.162 259.721 144.335 258.579 142.051C257.437 139.996 255.838 134.972 254.924 131.318L253.096 124.466L259.036 129.947C264.975 135.428 267.259 140.91 262.462 138.169C258.122 135.428 268.858 153.927 275.025 159.637C278.223 162.834 280.964 166.26 280.964 167.401C280.964 168.772 278.909 167.858 276.396 165.574C273.883 163.291 271.827 161.92 271.827 162.606C271.827 163.291 276.396 174.253 282.107 187.042C287.817 199.831 292.386 210.565 292.386 211.25C292.386 211.707 290.787 211.707 288.959 211.022C279.822 207.368 291.244 229.52 305.178 242.081C311.345 247.791 311.345 247.562 304.036 236.828C299.924 230.891 297.411 226.095 298.325 226.095C299.01 226.095 306.777 232.261 315.457 240.026C324.137 247.791 331.218 253.5 331.218 252.815C331.218 252.358 325.508 241.624 318.655 229.292C311.802 216.731 308.376 209.651 311.345 213.306C314.086 216.96 319.34 223.126 322.766 227.008L329.391 234.088L322.766 223.811C312.487 208.053 311.802 205.769 320.254 214.904C328.02 223.583 356.117 242.766 352.69 237.285C351.777 235.458 343.325 224.268 333.959 212.392C322.538 197.547 315 190.011 310.431 188.641C302.893 186.357 291.929 171.741 289.188 160.778C286.904 152.1 276.853 136.57 274.112 138.169C272.97 138.854 270.685 137.712 269.086 135.885C267.487 133.83 264.289 130.176 262.233 127.664C259.949 125.38 258.122 121.726 258.122 119.899C258.122 118.072 256.066 114.646 253.553 112.591C251.041 110.307 248.985 107.566 248.985 106.196C248.985 104.826 245.558 100.487 241.447 96.3758L233.909 89.0677L221.117 102.314ZM137.97 195.264C132.259 202.8 110.558 216.503 108.274 213.991C107.589 213.534 111.244 210.337 116.269 207.139C121.066 203.942 129.061 196.406 133.858 190.468C144.365 177.678 148.02 182.018 137.97 195.264ZM274.569 218.558C276.624 222.669 277.766 226.095 276.853 226.095C274.34 226.095 249.67 203.257 251.954 203.257C252.868 203.257 250.812 200.516 247.386 197.319C243.959 194.122 247.614 195.949 255.609 201.43C263.832 206.683 272.284 214.676 274.569 218.558ZM107.817 206.226C105.761 209.651 101.878 214.447 99.3655 216.503C95.0254 220.385 95.0254 220.385 99.137 213.534L103.477 206.683L97.3096 212.164C89.7715 219.243 89.5431 216.274 97.0812 206.454C100.508 202.115 104.619 199.146 107.132 199.374C111.472 199.603 111.472 199.831 107.817 206.226Z" fill="#F92525"/>
<path d="M304.492 143.193C302.208 145.477 301.294 146.619 302.437 145.477C305.634 143.193 308.832 143.422 307.462 145.934C306.548 147.076 307.233 150.958 308.376 154.384C310.431 159.865 310.431 160.093 307.233 157.581C301.751 153.014 300.838 156.211 304.949 165.803C306.777 170.599 307.919 175.851 307.462 177.45C306.777 179.049 309.289 181.789 312.944 183.845C316.827 185.9 319.797 188.184 319.797 189.097C320.025 190.011 325.279 196.405 331.447 203.257C340.127 212.849 342.183 214.219 339.67 208.966C334.645 198.689 329.162 184.987 329.848 184.987C330.305 184.987 334.873 191.838 339.898 200.288C344.924 208.966 352.919 219.472 357.716 223.811C364.569 230.205 365.711 230.662 362.97 226.095C360.914 222.897 356.574 215.132 352.919 208.966L346.294 197.547L363.426 213.762C372.792 222.669 382.843 231.347 386.041 232.946C391.066 235.458 390.609 234.316 382.843 224.724C368.68 207.368 368.452 206.682 372.335 208.966C374.162 209.88 378.046 212.849 381.015 215.361C383.756 217.873 386.041 218.787 386.041 217.416C386.041 216.046 385.127 214.219 383.756 213.534C382.614 212.849 381.472 211.022 381.472 209.651C381.472 208.281 383.528 209.88 386.041 213.077C390.381 218.558 418.477 239.797 421.218 239.797C421.904 239.797 418.02 233.403 412.31 225.866C400.203 209.423 383.985 194.35 379.873 195.72C378.274 196.405 374.162 194.578 370.964 192.066C366.396 188.412 364.112 187.955 361.827 189.782C357.487 193.437 350.178 190.239 348.579 183.845C347.665 180.647 346.066 178.135 344.467 178.135C341.954 178.135 333.503 169.457 333.503 166.945C333.503 166.031 328.934 160.55 323.223 154.384C317.513 148.218 312.944 142.28 312.944 141.138C312.944 138.169 309.061 139.082 304.492 143.193Z" fill="#F92525"/>
<path d="M174.746 160.093C172.234 163.976 174.975 164.889 178.173 161.007C180 158.952 180 157.581 178.629 157.581C177.259 157.581 175.431 158.723 174.746 160.093Z" fill="#F92525"/>
<path d="M179.315 180.419C173.147 187.27 176.574 188.184 182.741 181.561C185.711 178.363 187.081 175.851 185.711 175.851C184.569 175.851 181.599 177.907 179.315 180.419Z" fill="#F92525"/>
</svg>
